:SAMPLES-PER-SECOND 30
:FULLY-SPECIFIED
:DEGREES
362
root  55.149 36.9972 -1.15321 19.1268 84.1143 25.7637
RightUpLeg  -16.8711 -3.19818 -9.53888
RightLeg  66.34 0.834759 1.46507
RightFoot  -6.17023 -0.39356 7.75566
RightToes  4.6566e-010 0 -3.6325e-017
Spine  15.7913 1.22556 -1.08826
Spine1  0.0584881 1.32695 -2.64254
HEad  -17.6622 8.06184 1.91162
LeftShoulder1  0.652733 0.892471 -18.1169
LeftArm  -38.0466 -49.6113 -19.627
LeftForeArm  4.76646 -67.4958 -28.6872
LeftHand  -0.0256886 5.96513 2.36341
RightShoulder  0.346221 -0.523102 4.23476
RightArm  -40.6184 40.2679 29.751
RightForeArm  -4.56822 70.307 34.5052
RightHand  4.00653 -20.9929 -23.4786
LeftUpLeg  -20.6894 7.94887 -3.7155
LeftLeg  26.9801 -2.05956 -0.782579
LeftFoot  2.26428 -0.753614 6.19549
LeftToes  -4.59298e-010 2.08438e-011 -1.27151e-011
363
root  55.6949 37.3218 -1.23119 16.9403 83.717 22.9153
RightUpLeg  -18.9358 -1.55454 -9.28673
RightLeg  58.713 0.361536 0.22056
RightFoot  -7.36989 -0.306638 7.40119
RightToes  4.6566e-010 0 -3.6325e-017
Spine  18.5603 2.24832 -1.35852
Spine1  -5.64454 1.90135 0.382382
HEad  -15.1337 7.33228 -0.434762
LeftShoulder1  1.19835 -0.787495 -21.5954
LeftArm  -40.6976 -52.9405 -13.4043
LeftForeArm  -4.46 -62.3365 -22.7552
LeftHand  -0.0796899 2.03135 3.07677
RightShoulder  0.333191 3.21785 -3.83301
RightArm  -33.413 39.9718 30.3535
RightForeArm  -17.7917 73.865 62.4207
RightHand  10.3634 -32.1567 -35.2282
LeftUpLeg  -19.3082 8.51521 -3.68834
LeftLeg  24.9254 -2.28532 -0.807093
LeftFoot  2.05584 -0.735307 6.14826
LeftToes  -4.59298e-010 2.08438e-011 -1.27151e-011
364
root  56.1996 37.5972 -1.24007 15.7607 83.745 20.4595
RightUpLeg  -19.9383 0.111587 -9.06149
RightLeg  48.2282 -0.299144 -0.716035
RightFoot  -8.04746 -0.276808 7.71061
RightToes  4.6566e-010 0 -3.6325e-017
Spine  20.1902 3.10452 -1.67974
Spine1  -10.4556 2.59072 3.15569
HEad  -13.1951 6.3346 -2.55812
LeftShoulder1  1.7109 -2.19395 -23.7584
LeftArm  -44.6146 -55.6879 -7.82939
LeftForeArm  -6.79221 -56.7406 -17.9775
LeftHand  -0.0387724 -1.50648 0.524112
RightShoulder  -0.199623 7.20849 -11.8978
RightArm  5.66939 43.2452 39.3646
RightForeArm  -72.6085 64.7767 167.314
RightHand  -2.08656 -8.44389 34.2291
LeftUpLeg  -18.8747 8.74854 -3.57208
LeftLeg  23.1971 -2.62998 -0.888078
LeftFoot  1.97057 -0.726222 6.11479
LeftToes  -4.59298e-010 2.08438e-011 -1.27151e-011
365
root  56.7116 37.8321 -1.20655 17.5452 84.2953 21.1497
RightUpLeg  -19.1322 2.48245 -9.34412
RightLeg  35.6926 0.104172 -0.20134
RightFoot  -8.07298 -0.295203 8.28304
RightToes  4.6566e-010 0 -3.6325e-017
Spine  21.9785 3.63034 -2.38383
Spine1  -15.5074 3.10456 5.98712
HEad  -10.9519 5.79983 -4.47611
LeftShoulder1  2.1225 -2.9511 -26.8192
LeftArm  -47.5045 -58.5998 -1.99249
LeftForeArm  -10.7792 -51.9851 -15.185
LeftHand  0.0344587 2.19585 0.456264
RightShoulder  -1.10734 10.1464 -18.9859
RightArm  11.2892 41.4159 42.1441
RightForeArm  -69.3272 56.5002 169.22
RightHand  -4.20393 -12.3479 63.5391
LeftUpLeg  -18.3909 8.53038 -3.54771
LeftLeg  21.7118 -3.04715 -1.06568
LeftFoot  1.9301 -0.719608 6.07841
LeftToes  -4.59298e-010 2.08438e-011 -1.27151e-011
366
root  57.2002 38.0822 -1.15629 21.4293 85.1572 24.0586
RightUpLeg  -17.59 5.56041 -9.79125
RightLeg  23.9027 2.26413 0.841813
RightFoot  -6.11943 -0.374842 7.77561
RightToes  4.6566e-010 0 -3.6325e-017
Spine  23.3945 4.19382 -3.64175
Spine1  -19.3991 3.59141 10.2251
HEad  -6.78189 5.72023 -6.6692
LeftShoulder1  2.22002 -2.56014 -30.6003
LeftArm  -51.9659 -61.9426 4.33077
LeftForeArm  -13.0803 -48.5601 -13.6481
LeftHand  -0.0513164 12.6378 0.390814
RightShoulder  -1.76593 12.3671 -22.5725
RightArm  0.767039 42.751 35.7316
RightForeArm  -81.937 61.3493 166.855
RightHand  -5.76504 -14.6454 60.037
LeftUpLeg  -17.5599 7.69145 -3.47976
LeftLeg  19.6303 -3.09395 -1.19713
LeftFoot  2.10663 -0.695712 5.78993
LeftToes  -4.59298e-010 2.08438e-011 -1.27151e-011
367
root  57.6673 38.3447 -1.06266 26.3475 86.0778 28.2271
RightUpLeg  -16.8494 7.86286 -9.81333
RightLeg  18.7065 4.53657 1.53177
RightFoot  -1.6316 -0.489517 5.5259
RightToes  4.6566e-010 0 -3.6325e-017
Spine  22.9207 4.83397 -3.79503
Spine1  -20.2239 4.19048 13.4051
HEad  6.31579 6.89958 -8.95228
LeftShoulder1  2.36963 -2.3904 -34.1294
LeftArm  -57.1061 -66.2136 9.83293
LeftForeArm  -14.7884 -42.2062 -11.0417
LeftHand  -0.152594 9.342 -2.66598
RightShoulder  -2.27725 12.8964 -25.2647
RightArm  8.48985 42.7323 46.3377
RightForeArm  -55.9428 67.5052 160.467
RightHand  2.77685 6.16829 36.3513
LeftUpLeg  -16.4315 6.78478 -3.21814
LeftLeg  17.3276 -3.18895 -1.3035
LeftFoot  2.5618 -0.688175 5.51066
LeftToes  -4.59298e-010 2.08438e-011 -1.27151e-011
368
root  58.0677 38.4309 -0.911753 34.8024 86.8646 35.8345
RightUpLeg  -16.6311 9.01717 -9.77662
RightLeg  18.8925 1.71368 0.439253
RightFoot  -3.23193 -0.446963 5.96728
RightToes  4.6566e-010 0 -3.6325e-017
Spine  20.848 5.0529 -5.35062
Spine1  -19.4676 4.14492 16.9349
HEad  8.60183 8.21263 -8.65343
LeftShoulder1  2.66417 -2.88642 -35.6328
LeftArm  -62.8557 -68.2142 14.1872
LeftForeArm  -14.5224 -36.0381 -8.95091
LeftHand  -0.177573 9.10627 -3.79954
RightShoulder  -4.88216 19.9215 -33.2584
RightArm  11.3487 20.6674 49.2012
RightForeArm  -20.7477 60.9277 151.876
RightHand  2.79658 24.768 8.19103
LeftUpLeg  -16.463 5.64456 -3.0772
LeftLeg  16.8412 -3.11963 -1.29032
LeftFoot  2.25808 -0.653003 5.3599
LeftToes  -4.59298e-010 2.08438e-011 -1.27151e-011
369
root  58.4164 38.6386 -0.773163 31.9333 87.0696 32.1422
RightUpLeg  -15.7249 7.55903 -9.08152
RightLeg  16.3647 2.73762 0.540875
RightFoot  -1.47812 -0.519051 5.91724
RightToes  4.6566e-010 0 -3.6325e-017
Spine  21.2251 5.06336 -8.43657
Spine1  -21.5057 3.97346 21.9302
HEad  9.34066 8.827 -7.36099
LeftShoulder1  2.84712 -3.53139 -34.4662
LeftArm  -67.3052 -66.7467 18.5534
LeftForeArm  -14.8467 -30.7914 -7.50627
LeftHand  -0.1477 8.31451 -3.8243
RightShoulder  -9.59613 26.7712 -44.2648
RightArm  25.3602 -31.4895 35.713
RightForeArm  11.213 17.7414 177.45
RightHand  4.97316 20.754 21.0066
LeftUpLeg  -15.7761 4.89429 -2.46577
LeftLeg  14.9218 -2.56723 -1.12217
LeftFoot  2.64761 -0.6295 4.99535
LeftToes  -4.59298e-010 2.08438e-011 -1.27151e-011
370
root  58.7567 38.7941 -0.636787 25.9839 86.7558 25.2623
RightUpLeg  -15.6935 4.61599 -8.18159
RightLeg  15.1938 5.5815 0.927302
RightFoot  -0.126245 -0.446903 4.53543
RightToes  4.6566e-010 0 -3.6325e-017
Spine  20.1184 3.74609 -15.7212
Spine1  -20.4786 1.43816 31.5552
HEad  7.93697 12.1736 -8.37744
LeftShoulder1  2.45515 -2.90986 -33.1099
LeftArm  -72.1694 -62.2057 26.3691
LeftForeArm  -16.6629 -25.3114 -6.14874
LeftHand  -0.14897 8.56566 -3.51884
RightShoulder  -18.852 32.2844 -64.0478
RightArm  14.8697 -28.3304 65.8501
RightForeArm  15.326 26.3202 171.87
RightHand  5.73774 21.5613 23.6671
LeftUpLeg  -15.2896 4.84763 -1.94028
LeftLeg  13.2546 -2.24006 -1.16006
LeftFoot  2.70688 -0.597543 4.7162
LeftToes  -4.59298e-010 2.08438e-011 -1.27151e-011
371
root  59.0696 38.9491 -0.501278 33.4669 86.65 32.0533
RightUpLeg  -15.2571 1.06047 -7.85699
RightLeg  13.9779 8.86274 1.21368
RightFoot  0.53852 -0.372595 3.60735
RightToes  4.6566e-010 0 -3.6325e-017
Spine  21.1498 1.48176 -30.4991
Spine1  -18.9225 -3.63539 57.9937
HEad  7.83076 18.7019 -11.6674
LeftShoulder1  1.29213 0.0833337 -36.6783
LeftArm  -72.2476 -46.5231 31.2523
LeftForeArm  -22.575 -23.4384 -5.74977
LeftHand  -0.118011 7.75928 -3.41606
RightShoulder  -20.2258 22.5471 -90.3456
RightArm  -4.56012 16.5337 83.1689
RightForeArm  -18.6335 52.0904 -170.598
RightHand  3.40794 9.48967 25.0143
LeftUpLeg  -14.339 4.02547 -1.99923
LeftLeg  10.9562 -1.70051 -1.04378
LeftFoot  3.10811 -0.519853 3.94966
LeftToes  -4.59298e-010 2.08438e-011 -1.27151e-011
